# xmcd
#
# Track frame offsets: 
#        150
#        29109
#        46174
#        62103
#        78653
#        89739
#        112903
#        153418
#
# Disc length: 2186 seconds
#
# Revision: 0
# Processed by: cddbd v1.5.2PL0 Copyright (c) Steve Scherf et al.
# Submitted via: ExactAudioCopy v0.95b4
#
DISCID=67088808
DTITLE=Fleetwood Mac - Live In Amsterdam 1969
DYEAR=1900
DGENRE=Blues
TTITLE0=How Sweet One Woman Can Be
TTITLE1=Drinking Chablis
TTITLE2=Dust My Broom
TTITLE3=I Got To Move
TTITLE4=Noodle One
TTITLE5=Where In The World
TTITLE6=I Can't Hold Out
TTITLE7=Encore
EXTD=
EXTT0=
EXTT1=
EXTT2=
EXTT3=
EXTT4=
EXTT5=
EXTT6=
EXTT7=
PLAYORDER=
